<?xml version="1.0" encoding="UTF-8" standalone="no"?><!DOCTYPE svg PUBLIC "-//W3C//DTD SVG 1.1//EN" "http://www.w3.org/Graphics/SVG/1.1/DTD/svg11.dtd"><svg width="100%" height="100%" viewBox="0 0 400 125" version="1.1" xmlns="http://www.w3.org/2000/svg" xmlns:xlink="http://www.w3.org/1999/xlink" xml:space="preserve" xmlns:serif="http://www.serif.com/" style="fill-rule:evenodd;clip-rule:evenodd;stroke-linejoin:round;stroke-miterlimit:1.41421;"><clipPath id="_clip1"><rect x="12.049" y="4.567" width="115.865" height="115.865"/></clipPath><g clip-path="url(#_clip1)"><g><path d="M60.249,10.824c-28.503,2.086 -50.054,26.649 -48.2,55.152c1.854,28.503 26.649,50.054 55.152,47.968c5.33,-0.463 10.66,-1.622 15.758,-3.708c0.695,-0.231 0.927,-0.926 0.695,-1.622c-0.232,-0.463 -0.695,-0.927 -1.39,-0.695c-0.232,0 -0.232,0 -0.464,0c-4.866,1.854 -9.733,3.013 -15.062,3.476c-26.649,1.854 -50.054,-18.538 -51.908,-45.651c-1.854,-27.112 18.538,-50.517 45.651,-52.371c27.112,-1.854 50.517,18.539 52.371,45.651c0.232,1.854 0.232,3.939 0,5.793c0,0.232 0,0.695 0.232,0.927c0.231,0.232 0.463,0.464 0.927,0.464l0.231,0c0.696,0 1.159,-0.464 1.159,-1.159c0,-2.086 0,-4.171 0,-6.257c-2.086,-28.271 -26.649,-49.822 -55.152,-47.968Z" style="fill:#ed1d7f;fill-rule:nonzero;"/><path d="M119.34,74.087c-3.707,-3.013 -8.342,-4.867 -13.208,-4.867c-0.695,4.171 -1.854,7.879 -3.476,11.587c0.927,-0.232 1.854,-0.232 2.781,-0.232c2.78,0 5.098,0.927 6.952,2.549c2.549,2.086 4.171,5.33 4.171,8.806c0,6.256 -5.098,11.355 -11.355,11.355c-6.257,0 -11.355,-5.099 -11.355,-11.355c0,-2.318 0.695,-4.635 2.086,-6.489c12.513,-17.843 8.342,-42.406 -9.733,-55.152c-17.843,-12.513 -42.407,-8.342 -55.152,9.733c-12.513,17.843 -8.342,42.407 9.733,55.152c12.05,8.574 27.344,9.269 39.626,3.244c-1.159,-4.171 -1.159,-8.806 0,-13.208c-9.501,7.183 -22.942,7.878 -33.369,0.695c-12.746,-9.038 -15.758,-26.649 -6.952,-39.394c9.037,-12.746 26.649,-15.758 39.394,-6.952c12.745,9.037 15.758,26.649 6.952,39.394c-2.549,3.708 -4.171,8.11 -4.171,12.977c0,12.513 10.196,22.478 22.477,22.478c12.282,0 23.173,-10.197 23.173,-22.71c0,-7.184 -3.244,-13.44 -8.574,-17.611Z" style="fill:#ed1d7f;fill-rule:nonzero;"/></g></g><g><path d="M169.95,26.402l0,-11.481l-5.741,0c-4.464,0 -6.696,3.189 -6.696,9.567l0,1.914l12.437,0Zm-12.437,3.827l0,7.653l-6.697,0l0,-13.394c0,-8.929 3.826,-13.393 11.48,-13.393l14.351,0l0,26.787l-6.697,0l0,-7.653l-12.437,0Z" style="fill:#a3004c;fill-rule:nonzero;"/><path d="M187.17,37.882c-5.102,0 -7.653,-2.551 -7.653,-7.653l0,-12.438l6.696,0.02l0,12.418c0,2.551 1.595,3.826 4.784,3.826l1.913,0l0,-16.264l6.697,0l0,16.264l1.914,0c3.189,0 4.783,-1.275 4.783,-3.826l0,-12.438l6.697,0l0,12.438c0,5.102 -2.551,7.653 -7.654,7.653l-18.177,0Z" style="fill:#a3004c;fill-rule:nonzero;"/><path d="M222.568,26.497c0.6,-0.063 1.237,-0.095 1.913,-0.095l4.784,0c1.913,0 2.87,-0.638 2.87,-1.914l0,-0.956c0,-1.276 -0.957,-1.914 -2.87,-1.914l-3.827,0c-1.913,0 -2.87,0.651 -2.87,1.952l0,2.927Zm-6.697,-2.965c0,-3.827 2.551,-5.741 7.654,-5.741l6.697,0c5.74,0 8.61,1.914 8.61,5.741l0,0.956c0,3.827 -2.87,5.741 -8.61,5.741l-4.784,0c-1.913,0 -2.87,0.637 -2.87,1.913c0,1.276 0.957,1.913 2.87,1.913l13.394,0l0,3.827l-14.351,0c-5.74,0 -8.61,-2.073 -8.61,-6.218l0,-8.132Z" style="fill:#a3004c;fill-rule:nonzero;"/><path d="M256.053,25.445c5.74,0 8.61,1.913 8.61,5.74l0,0.957c0,3.827 -2.87,5.74 -8.61,5.74l-14.351,0l0,-3.827l13.394,0c1.913,0 2.87,-0.637 2.87,-1.913l0,-0.957c0,-1.275 -0.957,-1.913 -2.87,-1.913l-4.784,0c-5.74,0 -8.61,-1.914 -8.61,-5.74c0,-3.827 2.87,-5.741 8.61,-5.741l14.351,0l0,3.827l-13.394,0c-1.913,0 -2.87,0.638 -2.87,1.914c0,1.275 0.957,1.913 2.87,1.913l4.784,0Z" style="fill:#a3004c;fill-rule:nonzero;"/><path d="M275.187,37.882c-5.103,0 -7.654,-2.551 -7.654,-7.653l0,-4.784c0,-5.102 2.551,-7.654 7.654,-7.654l8.61,0c4.464,0 6.697,2.552 6.697,7.654l0,4.784c0,5.102 -2.552,7.653 -7.654,7.653l-7.653,0Zm8.61,-12.437c0,-2.551 -1.595,-3.827 -4.784,-3.827c-3.189,0 -4.783,1.276 -4.783,3.827l0,4.784c0,2.551 1.594,3.826 4.783,3.826c3.189,0 4.784,-1.275 4.784,-3.826l0,-4.784Z" style="fill:#a3004c;fill-rule:nonzero;"/><path d="M319.195,17.791c5.102,0 7.653,2.552 7.653,7.654l0,12.437l-6.697,-0.019l0,-12.418c0,-2.551 -1.594,-3.827 -4.783,-3.827l-1.914,0l0,16.264l-6.696,0l0,-16.264l-6.697,0l0,16.264l-6.697,0l0,-20.091l25.831,0Z" style="fill:#a3004c;fill-rule:nonzero;"/><path d="M336.415,26.497c0.6,-0.063 1.238,-0.095 1.914,-0.095l4.783,0c1.914,0 2.87,-0.638 2.87,-1.914l0,-0.956c0,-1.276 -0.956,-1.914 -2.87,-1.914l-3.827,0c-1.913,0 -2.87,0.651 -2.87,1.952l0,2.927Zm-6.697,-2.965c0,-3.827 2.552,-5.741 7.654,-5.741l6.697,0c5.74,0 8.61,1.914 8.61,5.741l0,0.956c0,3.827 -2.87,5.741 -8.61,5.741l-4.784,0c-1.913,0 -2.87,0.637 -2.87,1.913c0,1.276 0.957,1.913 2.87,1.913l13.394,0l0,3.827l-14.35,0c-5.741,0 -8.611,-2.073 -8.611,-6.218l0,-8.132Z" style="fill:#a3004c;fill-rule:nonzero;"/></g><g><path d="M158.368,55.79l0,12.288l19.84,0l0,6.976l-19.84,0l0,18.432l-7.552,0l0,-44.736l29.824,0l-0.064,7.04l-22.208,0Z" style="fill:#a3004c;fill-rule:nonzero;"/><path d="M211.488,77.87l0,-18.432l7.168,0l0,34.048l-7.168,0l0,-6.208c-1.152,2.091 -2.742,3.734 -4.768,4.928c-2.027,1.195 -4.214,1.792 -6.56,1.792c-3.84,0 -6.944,-1.173 -9.312,-3.52c-2.368,-2.346 -3.552,-5.738 -3.552,-10.176l0,-20.864l7.168,0l0,18.688c0,6.272 2.602,9.408 7.808,9.408c2.474,0 4.629,-0.821 6.464,-2.464c1.834,-1.642 2.752,-4.042 2.752,-7.2Z" style="fill:#a3004c;fill-rule:nonzero;"/><path d="M244.128,93.998c-4.736,0 -8.811,-1.61 -12.224,-4.832c-3.414,-3.221 -5.12,-7.434 -5.12,-12.64c0,-5.205 1.781,-9.44 5.344,-12.704c3.562,-3.264 7.904,-4.896 13.024,-4.896c5.12,0 9.45,1.771 12.992,5.312l-4.224,5.184c-2.944,-2.56 -5.91,-3.84 -8.896,-3.84c-2.987,0 -5.579,0.992 -7.776,2.976c-2.198,1.984 -3.296,4.544 -3.296,7.68c0,3.136 1.088,5.792 3.264,7.968c2.176,2.176 4.853,3.264 8.032,3.264c3.178,0 6.176,-1.45 8.992,-4.352l4.224,4.608c-4.139,4.182 -8.918,6.272 -14.336,6.272Z" style="fill:#a3004c;fill-rule:nonzero;"/><path d="M273.056,75.054l0,18.432l-7.168,0l0,-47.424l7.168,0l0,19.584c1.024,-2.09 2.57,-3.733 4.64,-4.928c2.069,-1.194 4.298,-1.792 6.688,-1.792c3.84,0 6.944,1.174 9.312,3.52c2.368,2.347 3.552,5.739 3.552,10.176l0,20.864l-7.168,0l0,-18.688c0,-6.272 -2.603,-9.408 -7.808,-9.408c-2.475,0 -4.63,0.822 -6.464,2.464c-1.835,1.643 -2.752,4.043 -2.752,7.2Z" style="fill:#a3004c;fill-rule:nonzero;"/><path d="M331.488,83.31c0,3.243 -1.174,5.835 -3.52,7.776c-2.347,1.942 -5.355,2.912 -9.024,2.912c-2.475,0 -5.046,-0.448 -7.712,-1.344c-2.667,-0.896 -5.024,-2.154 -7.072,-3.776l3.456,-5.568c3.968,2.987 7.808,4.48 11.52,4.48c1.621,0 2.901,-0.373 3.84,-1.12c0.938,-0.746 1.408,-1.696 1.408,-2.848c0,-1.706 -2.262,-3.242 -6.784,-4.608c-0.342,-0.128 -0.598,-0.213 -0.768,-0.256c-7.083,-1.92 -10.624,-5.12 -10.624,-9.6c0,-3.157 1.226,-5.685 3.68,-7.584c2.453,-1.898 5.642,-2.848 9.568,-2.848c3.925,0 7.637,1.152 11.136,3.456l-2.688,5.312c-2.774,-1.834 -5.782,-2.752 -9.024,-2.752c-1.707,0 -3.094,0.31 -4.16,0.928c-1.067,0.619 -1.6,1.547 -1.6,2.784c0,1.11 0.554,1.92 1.664,2.432c0.768,0.384 1.845,0.747 3.232,1.088c1.386,0.342 2.613,0.683 3.68,1.024c1.066,0.342 2.101,0.726 3.104,1.152c1.002,0.427 2.08,1.024 3.232,1.792c2.304,1.536 3.456,3.926 3.456,7.168Z" style="fill:#a3004c;fill-rule:nonzero;"/><path d="M346.784,93.486l-7.168,0l0,-34.048l7.168,0l0,34.048Zm-6.72,-40.832c-0.896,-0.896 -1.344,-1.962 -1.344,-3.2c0,-1.237 0.448,-2.304 1.344,-3.2c0.896,-0.896 1.962,-1.344 3.2,-1.344c1.237,0 2.304,0.448 3.2,1.344c0.896,0.896 1.344,1.963 1.344,3.2c0,1.238 -0.448,2.304 -1.344,3.2c-0.896,0.896 -1.963,1.344 -3.2,1.344c-1.238,0 -2.304,-0.448 -3.2,-1.344Z" style="fill:#a3004c;fill-rule:nonzero;"/><path d="M384.736,93.486l-6.528,0l0,-4.544c-2.816,3.371 -6.592,5.056 -11.328,5.056c-3.542,0 -6.475,-1.002 -8.8,-3.008c-2.326,-2.005 -3.488,-4.682 -3.488,-8.032c0,-3.349 1.237,-5.856 3.712,-7.52c2.474,-1.664 5.824,-2.496 10.048,-2.496l9.28,0l0,-1.28c0,-4.522 -2.518,-6.784 -7.552,-6.784c-3.158,0 -6.443,1.152 -9.856,3.456l-3.2,-4.48c4.138,-3.285 8.832,-4.928 14.08,-4.928c4.01,0 7.285,1.014 9.824,3.04c2.538,2.027 3.808,5.216 3.808,9.568l0,21.952Zm-7.168,-12.672l0,-2.88l-8.064,0c-5.163,0 -7.744,1.622 -7.744,4.864c0,1.664 0.64,2.934 1.92,3.808c1.28,0.875 3.061,1.312 5.344,1.312c2.282,0 4.277,-0.64 5.984,-1.92c1.706,-1.28 2.56,-3.008 2.56,-5.184Z" style="fill:#a3004c;fill-rule:nonzero;"/></g><g><path d="M273.656,113.571l-1.37,-0.247c0.154,-0.552 0.419,-0.96 0.795,-1.225c0.376,-0.265 0.935,-0.397 1.676,-0.397c0.673,0 1.175,0.079 1.504,0.239c0.329,0.159 0.561,0.361 0.696,0.607c0.134,0.245 0.201,0.695 0.201,1.35l-0.016,1.762c0,0.501 0.024,0.871 0.072,1.109c0.049,0.238 0.139,0.493 0.272,0.766l-1.494,0c-0.039,-0.101 -0.087,-0.249 -0.145,-0.446c-0.025,-0.09 -0.043,-0.149 -0.053,-0.177c-0.258,0.25 -0.534,0.438 -0.827,0.564c-0.294,0.125 -0.607,0.188 -0.94,0.188c-0.588,0 -1.05,-0.16 -1.389,-0.479c-0.338,-0.318 -0.507,-0.721 -0.507,-1.208c0,-0.322 0.077,-0.61 0.231,-0.862c0.154,-0.253 0.369,-0.446 0.647,-0.58c0.277,-0.134 0.677,-0.252 1.2,-0.352c0.706,-0.132 1.194,-0.256 1.467,-0.371l0,-0.15c0,-0.29 -0.072,-0.497 -0.215,-0.62c-0.143,-0.124 -0.414,-0.186 -0.811,-0.186c-0.269,0 -0.478,0.053 -0.629,0.159c-0.15,0.105 -0.272,0.291 -0.365,0.556Zm2.02,1.224c-0.194,0.065 -0.5,0.142 -0.919,0.231c-0.419,0.09 -0.693,0.178 -0.822,0.263c-0.197,0.14 -0.295,0.317 -0.295,0.532c0,0.211 0.079,0.394 0.236,0.548c0.158,0.154 0.358,0.231 0.602,0.231c0.272,0 0.532,-0.089 0.779,-0.269c0.182,-0.136 0.302,-0.302 0.359,-0.499c0.04,-0.129 0.06,-0.374 0.06,-0.736l0,-0.301Z" style="fill:#002b93;fill-rule:nonzero;"/><path d="M279.709,117.535l-1.804,-5.704l1.466,0l1.069,3.738l0.983,-3.738l1.455,0l0.951,3.738l1.09,-3.738l1.488,0l-1.832,5.704l-1.45,0l-0.983,-3.669l-0.966,3.669l-1.467,0Z" style="fill:#002b93;fill-rule:nonzero;"/><path d="M290.505,115.719l1.504,0.253c-0.193,0.551 -0.499,0.971 -0.916,1.259c-0.417,0.288 -0.939,0.433 -1.565,0.433c-0.992,0 -1.726,-0.325 -2.203,-0.973c-0.375,-0.519 -0.563,-1.174 -0.563,-1.965c0,-0.946 0.247,-1.686 0.741,-2.221c0.494,-0.536 1.119,-0.803 1.874,-0.803c0.849,0 1.518,0.28 2.009,0.84c0.491,0.561 0.725,1.419 0.704,2.576l-3.782,0c0.011,0.447 0.133,0.795 0.366,1.044c0.232,0.249 0.522,0.374 0.87,0.374c0.236,0 0.435,-0.065 0.596,-0.194c0.161,-0.129 0.283,-0.336 0.365,-0.623Zm0.086,-1.525c-0.011,-0.437 -0.123,-0.769 -0.338,-0.997c-0.215,-0.227 -0.477,-0.341 -0.784,-0.341c-0.33,0 -0.602,0.12 -0.817,0.36c-0.215,0.24 -0.32,0.566 -0.317,0.978l2.256,0Z" style="fill:#002b93;fill-rule:nonzero;"/><path d="M292.788,115.907l1.515,-0.231c0.064,0.294 0.195,0.517 0.392,0.669c0.197,0.152 0.472,0.228 0.827,0.228c0.39,0 0.684,-0.071 0.881,-0.215c0.132,-0.1 0.198,-0.234 0.198,-0.402c0,-0.115 -0.035,-0.21 -0.107,-0.285c-0.075,-0.072 -0.244,-0.138 -0.505,-0.199c-1.217,-0.268 -1.989,-0.514 -2.315,-0.736c-0.451,-0.308 -0.677,-0.736 -0.677,-1.283c0,-0.495 0.196,-0.91 0.586,-1.247c0.39,-0.336 0.995,-0.504 1.815,-0.504c0.781,0 1.361,0.127 1.74,0.381c0.38,0.254 0.641,0.63 0.785,1.128l-1.424,0.263c-0.061,-0.222 -0.176,-0.392 -0.346,-0.51c-0.17,-0.118 -0.413,-0.177 -0.728,-0.177c-0.397,0 -0.682,0.055 -0.854,0.166c-0.114,0.079 -0.172,0.181 -0.172,0.306c0,0.108 0.05,0.199 0.151,0.274c0.136,0.1 0.606,0.242 1.41,0.424c0.803,0.183 1.365,0.407 1.683,0.672c0.315,0.268 0.473,0.643 0.473,1.122c0,0.523 -0.218,0.973 -0.655,1.349c-0.437,0.376 -1.083,0.564 -1.939,0.564c-0.777,0 -1.392,-0.158 -1.845,-0.473c-0.453,-0.315 -0.749,-0.743 -0.889,-1.284Z" style="fill:#002b93;fill-rule:nonzero;"/><path d="M299.088,114.602c0,-0.501 0.124,-0.987 0.371,-1.456c0.247,-0.469 0.597,-0.827 1.05,-1.074c0.453,-0.247 0.959,-0.37 1.517,-0.37c0.863,0 1.57,0.28 2.122,0.84c0.551,0.561 0.827,1.269 0.827,2.124c0,0.863 -0.279,1.579 -0.835,2.146c-0.557,0.568 -1.258,0.852 -2.103,0.852c-0.523,0 -1.021,-0.119 -1.496,-0.355c-0.474,-0.236 -0.835,-0.583 -1.082,-1.039c-0.247,-0.457 -0.371,-1.013 -0.371,-1.668Zm1.547,0.081c0,0.565 0.134,0.999 0.403,1.299c0.268,0.301 0.6,0.452 0.994,0.452c0.393,0 0.724,-0.151 0.991,-0.452c0.266,-0.3 0.4,-0.737 0.4,-1.31c0,-0.559 -0.134,-0.988 -0.4,-1.289c-0.267,-0.301 -0.598,-0.451 -0.991,-0.451c-0.394,0 -0.726,0.15 -0.994,0.451c-0.269,0.301 -0.403,0.734 -0.403,1.3Z" style="fill:#002b93;fill-rule:nonzero;"/><path d="M306.044,111.831l1.391,0l0,0.778c0.498,-0.605 1.09,-0.907 1.778,-0.907c0.365,0 0.682,0.075 0.95,0.225c0.269,0.151 0.489,0.378 0.661,0.682c0.251,-0.304 0.521,-0.531 0.811,-0.682c0.29,-0.15 0.6,-0.225 0.929,-0.225c0.419,0 0.774,0.085 1.064,0.255c0.29,0.17 0.506,0.42 0.65,0.749c0.103,0.243 0.155,0.637 0.155,1.182l0,3.647l-1.509,0l0,-3.261c0,-0.565 -0.052,-0.931 -0.156,-1.095c-0.139,-0.215 -0.354,-0.323 -0.644,-0.323c-0.211,0 -0.41,0.065 -0.596,0.194c-0.187,0.129 -0.321,0.318 -0.403,0.566c-0.083,0.249 -0.124,0.642 -0.124,1.179l0,2.74l-1.509,0l0,-3.126c0,-0.555 -0.027,-0.913 -0.081,-1.075c-0.053,-0.161 -0.137,-0.281 -0.249,-0.359c-0.113,-0.079 -0.266,-0.119 -0.46,-0.119c-0.232,0 -0.442,0.063 -0.628,0.188c-0.186,0.126 -0.32,0.307 -0.4,0.543c-0.081,0.236 -0.121,0.628 -0.121,1.176l0,2.772l-1.509,0l0,-5.704Z" style="fill:#002b93;fill-rule:nonzero;"/><path d="M319.241,115.719l1.503,0.253c-0.193,0.551 -0.498,0.971 -0.915,1.259c-0.417,0.288 -0.939,0.433 -1.566,0.433c-0.992,0 -1.726,-0.325 -2.202,-0.973c-0.376,-0.519 -0.564,-1.174 -0.564,-1.965c0,-0.946 0.247,-1.686 0.741,-2.221c0.494,-0.536 1.119,-0.803 1.875,-0.803c0.848,0 1.518,0.28 2.008,0.84c0.491,0.561 0.725,1.419 0.704,2.576l-3.781,0c0.01,0.447 0.132,0.795 0.365,1.044c0.233,0.249 0.523,0.374 0.87,0.374c0.236,0 0.435,-0.065 0.596,-0.194c0.161,-0.129 0.283,-0.336 0.366,-0.623Zm0.085,-1.525c-0.01,-0.437 -0.123,-0.769 -0.338,-0.997c-0.215,-0.227 -0.476,-0.341 -0.784,-0.341c-0.33,0 -0.602,0.12 -0.817,0.36c-0.214,0.24 -0.32,0.566 -0.316,0.978l2.255,0Z" style="fill:#002b93;fill-rule:nonzero;"/><path d="M321.394,111.831l0.838,0l0,-0.43c0,-0.48 0.051,-0.838 0.153,-1.074c0.102,-0.237 0.29,-0.429 0.564,-0.578c0.274,-0.148 0.621,-0.223 1.04,-0.223c0.429,0 0.85,0.065 1.262,0.194l-0.204,1.052c-0.24,-0.057 -0.471,-0.086 -0.693,-0.086c-0.219,0 -0.375,0.051 -0.47,0.154c-0.095,0.102 -0.143,0.298 -0.143,0.588l0,0.403l1.128,0l0,1.187l-1.128,0l0,4.517l-1.509,0l0,-4.517l-0.838,0l0,-1.187Z" style="fill:#002b93;fill-rule:nonzero;"/><path d="M329.472,117.535l0,-0.854c-0.207,0.304 -0.48,0.544 -0.819,0.719c-0.338,0.176 -0.695,0.264 -1.071,0.264c-0.383,0 -0.727,-0.085 -1.031,-0.253c-0.305,-0.168 -0.525,-0.405 -0.661,-0.709c-0.136,-0.304 -0.204,-0.725 -0.204,-1.262l0,-3.609l1.509,0l0,2.621c0,0.802 0.028,1.293 0.083,1.474c0.056,0.181 0.157,0.324 0.304,0.43c0.147,0.105 0.333,0.158 0.558,0.158c0.258,0 0.489,-0.071 0.693,-0.212c0.204,-0.142 0.344,-0.317 0.419,-0.526c0.075,-0.21 0.113,-0.723 0.113,-1.539l0,-2.406l1.509,0l0,5.704l-1.402,0Z" style="fill:#002b93;fill-rule:nonzero;"/><path d="M337.411,113.517l-1.488,0.269c-0.05,-0.298 -0.164,-0.521 -0.341,-0.672c-0.177,-0.15 -0.407,-0.225 -0.69,-0.225c-0.376,0 -0.676,0.129 -0.9,0.389c-0.224,0.26 -0.335,0.694 -0.335,1.303c0,0.676 0.113,1.154 0.341,1.434c0.227,0.279 0.532,0.419 0.915,0.419c0.287,0 0.521,-0.082 0.704,-0.245c0.183,-0.163 0.312,-0.443 0.387,-0.84l1.482,0.252c-0.154,0.68 -0.449,1.194 -0.886,1.542c-0.437,0.347 -1.022,0.521 -1.756,0.521c-0.835,0 -1.5,-0.264 -1.996,-0.79c-0.496,-0.526 -0.744,-1.255 -0.744,-2.186c0,-0.942 0.249,-1.675 0.747,-2.2c0.498,-0.524 1.171,-0.786 2.019,-0.786c0.695,0 1.247,0.149 1.657,0.448c0.41,0.299 0.705,0.755 0.884,1.367Z" style="fill:#002b93;fill-rule:nonzero;"/><path d="M340.059,109.661l0,2.895c0.487,-0.57 1.069,-0.854 1.745,-0.854c0.348,0 0.661,0.064 0.94,0.193c0.28,0.129 0.49,0.294 0.632,0.494c0.141,0.201 0.238,0.423 0.29,0.666c0.051,0.244 0.077,0.621 0.077,1.133l0,3.347l-1.509,0l0,-3.014c0,-0.598 -0.028,-0.977 -0.086,-1.138c-0.057,-0.161 -0.158,-0.289 -0.303,-0.384c-0.145,-0.095 -0.327,-0.143 -0.545,-0.143c-0.251,0 -0.475,0.061 -0.672,0.183c-0.197,0.122 -0.341,0.305 -0.432,0.551c-0.091,0.245 -0.137,0.607 -0.137,1.087l0,2.858l-1.509,0l0,-7.874l1.509,0Z" style="fill:#002b93;fill-rule:nonzero;"/><path d="M344.742,115.907l1.515,-0.231c0.065,0.294 0.195,0.517 0.392,0.669c0.197,0.152 0.473,0.228 0.827,0.228c0.391,0 0.684,-0.071 0.881,-0.215c0.133,-0.1 0.199,-0.234 0.199,-0.402c0,-0.115 -0.036,-0.21 -0.107,-0.285c-0.076,-0.072 -0.244,-0.138 -0.505,-0.199c-1.218,-0.268 -1.989,-0.514 -2.315,-0.736c-0.451,-0.308 -0.677,-0.736 -0.677,-1.283c0,-0.495 0.195,-0.91 0.585,-1.247c0.391,-0.336 0.996,-0.504 1.816,-0.504c0.78,0 1.361,0.127 1.74,0.381c0.38,0.254 0.641,0.63 0.784,1.128l-1.423,0.263c-0.061,-0.222 -0.176,-0.392 -0.347,-0.51c-0.17,-0.118 -0.412,-0.177 -0.727,-0.177c-0.398,0 -0.682,0.055 -0.854,0.166c-0.115,0.079 -0.172,0.181 -0.172,0.306c0,0.108 0.05,0.199 0.15,0.274c0.136,0.1 0.606,0.242 1.41,0.424c0.804,0.183 1.365,0.407 1.684,0.672c0.315,0.268 0.473,0.643 0.473,1.122c0,0.523 -0.219,0.973 -0.656,1.349c-0.437,0.376 -1.083,0.564 -1.939,0.564c-0.777,0 -1.392,-0.158 -1.845,-0.473c-0.453,-0.315 -0.749,-0.743 -0.889,-1.284Z" style="fill:#002b93;fill-rule:nonzero;"/><path d="M351.392,111.057l0,-1.396l1.509,0l0,1.396l-1.509,0Zm0,6.478l0,-5.704l1.509,0l0,5.704l-1.509,0Z" style="fill:#002b93;fill-rule:nonzero;"/><path d="M355.576,113.571l-1.37,-0.247c0.154,-0.552 0.419,-0.96 0.795,-1.225c0.376,-0.265 0.935,-0.397 1.676,-0.397c0.673,0 1.175,0.079 1.504,0.239c0.329,0.159 0.561,0.361 0.696,0.607c0.134,0.245 0.201,0.695 0.201,1.35l-0.016,1.762c0,0.501 0.024,0.871 0.072,1.109c0.049,0.238 0.139,0.493 0.272,0.766l-1.494,0c-0.039,-0.101 -0.087,-0.249 -0.145,-0.446c-0.025,-0.09 -0.043,-0.149 -0.053,-0.177c-0.258,0.25 -0.534,0.438 -0.827,0.564c-0.294,0.125 -0.607,0.188 -0.94,0.188c-0.588,0 -1.05,-0.16 -1.389,-0.479c-0.338,-0.318 -0.507,-0.721 -0.507,-1.208c0,-0.322 0.077,-0.61 0.231,-0.862c0.154,-0.253 0.369,-0.446 0.647,-0.58c0.277,-0.134 0.677,-0.252 1.2,-0.352c0.706,-0.132 1.194,-0.256 1.467,-0.371l0,-0.15c0,-0.29 -0.072,-0.497 -0.215,-0.62c-0.144,-0.124 -0.414,-0.186 -0.811,-0.186c-0.269,0 -0.478,0.053 -0.629,0.159c-0.15,0.105 -0.272,0.291 -0.365,0.556Zm2.02,1.224c-0.194,0.065 -0.5,0.142 -0.919,0.231c-0.419,0.09 -0.693,0.178 -0.822,0.263c-0.197,0.14 -0.295,0.317 -0.295,0.532c0,0.211 0.079,0.394 0.236,0.548c0.158,0.154 0.358,0.231 0.602,0.231c0.272,0 0.531,-0.089 0.779,-0.269c0.182,-0.136 0.302,-0.302 0.359,-0.499c0.04,-0.129 0.06,-0.374 0.06,-0.736l0,-0.301Z" style="fill:#002b93;fill-rule:nonzero;"/><rect x="360.566" y="116.025" width="1.509" height="1.509" style="fill:#002b93;fill-rule:nonzero;"/><path d="M368.596,113.517l-1.488,0.269c-0.05,-0.298 -0.164,-0.521 -0.341,-0.672c-0.178,-0.15 -0.408,-0.225 -0.691,-0.225c-0.376,0 -0.675,0.129 -0.899,0.389c-0.224,0.26 -0.336,0.694 -0.336,1.303c0,0.676 0.114,1.154 0.341,1.434c0.228,0.279 0.533,0.419 0.916,0.419c0.286,0 0.521,-0.082 0.704,-0.245c0.182,-0.163 0.311,-0.443 0.386,-0.84l1.483,0.252c-0.154,0.68 -0.45,1.194 -0.887,1.542c-0.436,0.347 -1.022,0.521 -1.756,0.521c-0.834,0 -1.499,-0.264 -1.995,-0.79c-0.496,-0.526 -0.744,-1.255 -0.744,-2.186c0,-0.942 0.249,-1.675 0.746,-2.2c0.498,-0.524 1.171,-0.786 2.02,-0.786c0.695,0 1.247,0.149 1.657,0.448c0.41,0.299 0.704,0.755 0.884,1.367Z" style="fill:#002b93;fill-rule:nonzero;"/><path d="M369.39,114.602c0,-0.501 0.124,-0.987 0.371,-1.456c0.247,-0.469 0.597,-0.827 1.05,-1.074c0.453,-0.247 0.959,-0.37 1.517,-0.37c0.863,0 1.571,0.28 2.122,0.84c0.551,0.561 0.827,1.269 0.827,2.124c0,0.863 -0.278,1.579 -0.835,2.146c-0.557,0.568 -1.258,0.852 -2.103,0.852c-0.523,0 -1.021,-0.119 -1.496,-0.355c-0.474,-0.236 -0.835,-0.583 -1.082,-1.039c-0.247,-0.457 -0.371,-1.013 -0.371,-1.668Zm1.547,0.081c0,0.565 0.135,0.999 0.403,1.299c0.269,0.301 0.6,0.452 0.994,0.452c0.394,0 0.724,-0.151 0.991,-0.452c0.267,-0.3 0.4,-0.737 0.4,-1.31c0,-0.559 -0.133,-0.988 -0.4,-1.289c-0.267,-0.301 -0.597,-0.451 -0.991,-0.451c-0.394,0 -0.725,0.15 -0.994,0.451c-0.268,0.301 -0.403,0.734 -0.403,1.3Z" style="fill:#002b93;fill-rule:nonzero;"/><path d="M376.346,111.831l1.391,0l0,0.778c0.498,-0.605 1.09,-0.907 1.778,-0.907c0.365,0 0.682,0.075 0.951,0.225c0.268,0.151 0.488,0.378 0.66,0.682c0.251,-0.304 0.521,-0.531 0.811,-0.682c0.29,-0.15 0.6,-0.225 0.929,-0.225c0.419,0 0.774,0.085 1.064,0.255c0.29,0.17 0.507,0.42 0.65,0.749c0.104,0.243 0.156,0.637 0.156,1.182l0,3.647l-1.51,0l0,-3.261c0,-0.565 -0.052,-0.931 -0.155,-1.095c-0.14,-0.215 -0.355,-0.323 -0.645,-0.323c-0.211,0 -0.41,0.065 -0.596,0.194c-0.186,0.129 -0.321,0.318 -0.403,0.566c-0.082,0.249 -0.123,0.642 -0.123,1.179l0,2.74l-1.51,0l0,-3.126c0,-0.555 -0.027,-0.913 -0.08,-1.075c-0.054,-0.161 -0.137,-0.281 -0.25,-0.359c-0.113,-0.079 -0.266,-0.119 -0.459,-0.119c-0.233,0 -0.443,0.063 -0.629,0.188c-0.186,0.126 -0.319,0.307 -0.4,0.543c-0.08,0.236 -0.121,0.628 -0.121,1.176l0,2.772l-1.509,0l0,-5.704Z" style="fill:#002b93;fill-rule:nonzero;"/><rect x="271.739" y="118.7" width="113.711" height="1.155" style="fill:#002b93;fill-rule:nonzero;"/></g><path d="M84.069,53.559l-10.735,-9.847l-1.51,1.646l8.946,8.201l-35.261,0l8.946,-8.208l-1.51,-1.646l-10.736,9.854l-0.007,0l0,6.492c0,2.934 2.827,5.324 6.298,5.324l6.62,0c3.471,0 6.298,-2.39 6.298,-5.324l0,-4.266l3.435,0l0,4.266c0,2.934 2.827,5.324 6.298,5.324l6.62,0c3.471,0 6.298,-2.39 6.298,-5.324l0,-6.492Z" style="fill:#a3004c;fill-rule:nonzero;"/></svg>